<svg width="200" height="60" viewBox="0 0 200 60" fill="none" xmlns="http://www.w3.org/2000/svg">
  <!-- Background Circle - Rounded Style -->
  <circle cx="30" cy="30" r="28" fill="#FF7A32" fill-opacity="0.12"/>
  
  <!-- Letter D - Rounded corners -->
  <path d="M11 4C11 3.44772 11.4477 3 12 3H19C24.5228 3 29 7.47715 29 13C29 18.5228 24.5228 23 19 23H12C11.4477 23 11 22.5523 11 22V4Z" fill="#FF7A32"/>
  <path d="M13 7V19H18.5C21.5376 19 24 16.5376 24 13.5C24 10.4624 21.5376 8 18.5 8H13V7Z" fill="#FFFFFF"/>
  
  <!-- Delivery Arrow - Rounded -->
  <path d="M20 26L25 20L20 14" stroke="#FF7A32" stroke-width="2.8" stroke-linecap="round" stroke-linejoin="round"/>
  <path d="M25 20H17" stroke="#FF7A32" stroke-width="2.8" stroke-linecap="round"/>
  
  <!-- Location Dot -->
  <circle cx="25" cy="20" r="3" fill="#FF7A32"/>
  
  <!-- Wordmark: DeliGo -->
  <text x="50" y="38" font-family="system-ui, -apple-system, sans-serif" font-size="32" font-weight="700" fill="#121212" letter-spacing="-0.5">DeliGo</text>
</svg>

